HIERARCHY
ROOT joint_Root
{
	OFFSET 0.0 0.0 0.0
	CHANNELS 6 Xposition Yposition Zposition Zrotation Xrotation Yrotation 
	JOINT Hips
	{
		OFFSET -0.726466 93.3139 -2.00062
		CHANNELS 6 Xposition Yposition Zposition Zrotation Xrotation Yrotation 
		JOINT Spine
		{
			OFFSET 15.7357 0.0 0.0
			CHANNELS 6 Xposition Yposition Zposition Zrotation Xrotation Yrotation 
			JOINT Chest
			{
				OFFSET 8.98455 -0.406207 0.0
				CHANNELS 6 Xposition Yposition Zposition Zrotation Xrotation Yrotation 
				JOINT Neck
				{
					OFFSET 16.3773 0.0 0.0
					CHANNELS 6 Xposition Yposition Zposition Zrotation Xrotation Yrotation 
					JOINT Head
					{
						OFFSET 6.45672 0.0 0.0
						CHANNELS 6 Xposition Yposition Zposition Zrotation Xrotation Yrotation 
						End Site
						{
							OFFSET 0.0 0.0 0.0
						}
					}
				}
				JOINT Shoulder_L
				{
					OFFSET 12.9942 -0.242716 4.98039
					CHANNELS 6 Xposition Yposition Zposition Zrotation Xrotation Yrotation 
					JOINT UpperArm_L
					{
						OFFSET 5.34809 0.0 0.0
						CHANNELS 6 Xposition Yposition Zposition Zrotation Xrotation Yrotation 
						JOINT LowerArm_L
						{
							OFFSET 24.3286 1.87007e-05 0.0
							CHANNELS 6 Xposition Yposition Zposition Zrotation Xrotation Yrotation 
							JOINT Hand_L
							{
								OFFSET 22.2916 0.0 0.0
								CHANNELS 6 Xposition Yposition Zposition Zrotation Xrotation Yrotation 
								End Site
								{
									OFFSET 0.0 0.0 0.0
								}
							}
						}
					}
				}
				JOINT Shoulder_R
				{
					OFFSET 12.9945 -0.242716 -4.98039
					CHANNELS 6 Xposition Yposition Zposition Zrotation Xrotation Yrotation 
					JOINT UpperArm_R
					{
						OFFSET -5.34813 0.0 0.0
						CHANNELS 6 Xposition Yposition Zposition Zrotation Xrotation Yrotation 
						JOINT LowerArm_R
						{
							OFFSET -24.3289 0.000322201 0.0
							CHANNELS 6 Xposition Yposition Zposition Zrotation Xrotation Yrotation 
							JOINT Hand_R
							{
								OFFSET -22.2915 -0.000108084 0.0
								CHANNELS 6 Xposition Yposition Zposition Zrotation Xrotation Yrotation 
								End Site
								{
									OFFSET 0.0 0.0 0.0
								}
							}
						}
					}
				}
			}
		}
		JOINT UpperLeg_L
		{
			OFFSET -2.19248 -6.46944 0.0
			CHANNELS 6 Xposition Yposition Zposition Zrotation Xrotation Yrotation 
			JOINT LowerLeg_L
			{
				OFFSET 39.0811 0.0 -1.23785e-05
				CHANNELS 6 Xposition Yposition Zposition Zrotation Xrotation Yrotation 
				JOINT Foot_L
				{
					OFFSET 40.9854 0.0 -1.26872e-05
					CHANNELS 6 Xposition Yposition Zposition Zrotation Xrotation Yrotation 
					JOINT Toes_L
					{
						OFFSET 11.7543 0.0 0.0
						CHANNELS 6 Xposition Yposition Zposition Zrotation Xrotation Yrotation 
						End Site
						{
							OFFSET 0.0 0.0 0.0
						}
					}
				}
			}
		}
		JOINT UpperLeg_R
		{
			OFFSET -2.19251 6.46944 0.0
			CHANNELS 6 Xposition Yposition Zposition Zrotation Xrotation Yrotation 
			JOINT LowerLeg_R
			{
				OFFSET -39.0811 -0.00228153 -0.0401928
				CHANNELS 6 Xposition Yposition Zposition Zrotation Xrotation Yrotation 
				JOINT Foot_R
				{
					OFFSET -40.9854 0.0 0.0
					CHANNELS 6 Xposition Yposition Zposition Zrotation Xrotation Yrotation 
					JOINT Toes_R
					{
						OFFSET -11.7543 0.0 0.0
						CHANNELS 6 Xposition Yposition Zposition Zrotation Xrotation Yrotation 
						End Site
						{
							OFFSET 0.0 0.0 0.0
						}
					}
				}
			}
		}
	}
}
MOTION
Frames:	9
Frame Time:	0.0333333
0.000000 0.000000 0.000000 0.000000 0.000000 -0.000000 -0.144758 91.745600 -2.790610 87.454700 -2.673200 4.950560 15.735700 0.000005 -0.000001 85.142100 82.356600 -84.605300 8.984550 -0.406207 -0.000000 7.473540 -1.290980 1.156760 16.377300 -0.000001 -0.000001 3.945730 -0.579089 1.303570 6.456720 -0.000001 -0.000000 -0.865736 0.605674 -2.179160 12.994200 -0.242716 4.980390 -90.032500 0.104815 -72.783800 5.348090 -0.000007 -0.000001 -62.727500 36.277800 -16.986300 24.328600 0.000019 0.000005 2.296940 3.372400 -34.287500 22.291600 -0.000001 0.000005 5.986090 5.660010 -16.059900 12.994500 -0.242716 -4.980390 88.460200 5.047610 -73.010700 -5.348130 -0.000001 -0.000004 -57.075500 31.951400 -21.350900 -24.328900 0.000322 -0.000009 0.056677 0.089800 -32.742900 -22.291500 -0.000108 -0.000004 10.320800 5.662440 -16.347900 -2.192480 -6.469440 -0.000000 -170.482000 -17.590500 -5.030360 39.081100 -0.000007 -0.000012 -0.158461 0.312997 26.851900 40.985400 -0.000006 -0.000013 -4.697310 -1.520230 -65.225300 11.754300 -0.000000 0.000003 -0.000069 -0.000749 -16.606500 -2.192510 6.469440 -0.000001 175.635000 22.290900 176.089000 -39.081100 -0.002282 -0.040193 0.047557 -0.095663 24.820700 -40.985400 0.000008 0.000006 0.682592 3.216200 -63.841700 -11.754300 -0.000006 -0.000006 -0.005349 -0.064802 -19.210000
0.000000 0.000000 0.000000 0.000000 0.000000 -0.000000 -0.146613 91.731100 -2.765630 87.459200 -3.006510 5.069700 15.735700 0.000005 -0.000001 85.494600 82.291800 -84.960500 8.984550 -0.406207 -0.000000 7.609940 -1.206960 1.147450 16.377300 -0.000001 -0.000001 3.924550 -0.542045 1.369520 6.456720 -0.000001 -0.000000 -1.008160 0.618606 -2.252370 12.994200 -0.242716 4.980390 -90.054400 0.175317 -72.777000 5.348090 -0.000007 -0.000001 -60.886800 35.956800 -17.697700 24.328600 0.000019 0.000005 2.554730 3.578340 -35.557900 22.291600 -0.000001 0.000005 6.068290 5.663150 -16.433800 12.994500 -0.242716 -4.980390 88.621200 4.549630 -73.120900 -5.348130 -0.000001 -0.000004 -56.120200 34.024300 -21.483500 -24.328900 0.000322 -0.000009 0.033781 0.051168 -34.383100 -22.291500 -0.000108 -0.000004 10.731300 5.662880 -16.398100 -2.192480 -6.469440 -0.000000 -170.422000 -17.675700 -4.838140 39.081100 -0.000007 -0.000012 -0.160845 0.316893 26.911100 40.985400 -0.000006 -0.000013 -4.774460 -1.765710 -65.319700 11.754300 -0.000000 0.000003 -0.000072 -0.000777 -16.607600 -2.192510 6.469440 -0.000001 175.598000 22.117600 176.161000 -39.081100 -0.002282 -0.040193 0.047801 -0.095863 24.895700 -40.985400 0.000008 0.000006 0.718573 3.365260 -63.903200 -11.754300 -0.000006 -0.000006 -0.005540 -0.066601 -19.283300
0.000000 0.000000 0.000000 0.000000 0.000000 -0.000000 -0.152684 91.730800 -2.731120 87.433500 -3.353400 5.130570 15.735700 0.000005 -0.000001 85.966700 82.273000 -85.402800 8.984550 -0.406207 -0.000000 7.656220 -1.083180 1.199220 16.377300 -0.000001 -0.000001 3.895550 -0.449490 1.372470 6.456720 -0.000001 -0.000000 -1.161370 0.591449 -2.277720 12.994200 -0.242716 4.980390 -90.055000 0.176095 -72.671300 5.348090 -0.000007 -0.000001 -58.458400 34.889800 -19.025100 24.328600 0.000019 0.000005 2.990200 3.998760 -36.832400 22.291600 -0.000001 0.000005 6.505160 5.665880 -16.782800 12.994500 -0.242716 -4.980390 88.797400 3.977550 -73.162100 -5.348130 -0.000001 -0.000004 -54.275900 37.217000 -21.570700 -24.328900 0.000322 -0.000009 -0.213329 -0.278891 -37.232200 -22.291500 -0.000108 -0.000004 11.785500 5.665640 -16.743800 -2.192480 -6.469440 -0.000000 -170.346000 -17.743300 -4.663800 39.081100 -0.000007 -0.000012 -0.161714 0.318796 26.897200 40.985400 -0.000006 -0.000013 -4.855990 -2.002250 -65.382400 11.754300 -0.000000 0.000003 -0.000072 -0.000774 -16.607400 -2.192510 6.469440 -0.000001 175.630000 21.922600 176.178000 -39.081100 -0.002282 -0.040193 0.047408 -0.094884 24.926200 -40.985400 0.000008 0.000006 0.795451 3.488920 -63.881600 -11.754300 -0.000006 -0.000006 -0.005310 -0.064436 -19.195100
0.000000 0.000000 0.000000 0.000000 0.000000 -0.000000 -0.167843 91.721000 -2.681580 87.412100 -3.579080 5.216040 15.735700 0.000005 -0.000001 86.278300 82.283400 -85.648600 8.984550 -0.406207 -0.000000 7.641330 -0.998489 1.324780 16.377300 -0.000001 -0.000001 3.899080 -0.348158 1.332000 6.456720 -0.000001 -0.000000 -1.407810 0.593025 -2.349610 12.994200 -0.242716 4.980390 -90.018400 0.058278 -72.515900 5.348090 -0.000007 -0.000001 -55.945900 32.423700 -20.589900 24.328600 0.000019 0.000005 3.527620 4.458220 -38.415900 22.291600 -0.000001 0.000005 7.601230 5.669530 -17.288400 12.994500 -0.242716 -4.980390 88.988300 3.337710 -73.127000 -5.348130 -0.000001 -0.000004 -51.418500 41.294700 -21.586000 -24.328900 0.000322 -0.000009 0.163908 0.183916 -41.658200 -22.291500 -0.000108 -0.000004 13.678200 5.670870 -17.501900 -2.192480 -6.469440 -0.000000 -170.260000 -17.800900 -4.498210 39.081100 -0.000007 -0.000012 -0.163292 0.321397 26.933900 40.985400 -0.000006 -0.000013 -4.923500 -2.151400 -65.465900 11.754300 -0.000000 0.000003 -0.000077 -0.000820 -16.609200 -2.192510 6.469440 -0.000001 175.618000 21.852100 176.280000 -39.081100 -0.002282 -0.040193 0.047613 -0.095201 24.954600 -40.985400 0.000008 0.000006 0.862953 3.645860 -63.949100 -11.754300 -0.000006 -0.000006 -0.005358 -0.064893 -19.213700
0.000000 0.000000 0.000000 0.000000 0.000000 -0.000000 -0.198317 91.712400 -2.618830 87.364200 -3.639000 5.253770 15.735700 0.000005 -0.000001 86.343500 82.330800 -85.614300 8.984550 -0.406207 -0.000000 7.548600 -0.975768 1.521370 16.377300 -0.000001 -0.000001 3.851160 -0.253459 1.238590 6.456720 -0.000001 -0.000000 -1.725720 0.651389 -2.355700 12.994200 -0.242716 4.980390 -89.941700 -0.183226 -72.335300 5.348090 -0.000007 -0.000001 -53.112300 28.919100 -22.534300 24.328600 0.000019 0.000005 3.361850 3.930370 -40.599900 22.291600 -0.000001 0.000005 8.857230 5.672780 -17.835800 12.994500 -0.242716 -4.980390 89.179600 2.673960 -72.934800 -5.348130 -0.000001 -0.000004 -48.022900 45.459900 -21.323500 -24.328900 0.000322 -0.000009 1.980310 1.805250 -47.640000 -22.291500 -0.000108 -0.000004 15.184600 5.673340 -17.925700 -2.192480 -6.469440 -0.000000 -170.159000 -17.822500 -4.407990 39.081100 -0.000007 -0.000012 -0.163621 0.321432 26.978000 40.985400 -0.000006 -0.000013 -4.965160 -2.161550 -65.539400 11.754300 -0.000000 0.000003 -0.000077 -0.000825 -16.609400 -2.192510 6.469440 -0.000001 175.647000 21.853900 176.347000 -39.081100 -0.002282 -0.040193 0.046888 -0.093524 24.982300 -40.985400 0.000008 0.000006 0.791472 3.672350 -63.963300 -11.754300 -0.000006 -0.000006 -0.005511 -0.066329 -19.272200
0.000000 0.000000 0.000000 0.000000 0.000000 -0.000000 -0.235753 91.699100 -2.530030 87.350300 -3.426920 5.371190 15.735700 0.000005 -0.000001 85.746700 82.405300 -84.906300 8.984550 -0.406207 -0.000000 7.391530 -1.125070 1.751690 16.377300 -0.000001 -0.000001 3.864120 -0.173588 1.147460 6.456720 -0.000001 -0.000000 -2.068610 0.831179 -2.395210 12.994200 -0.242716 4.980390 -89.817300 -0.568519 -72.188400 5.348090 -0.000007 -0.000001 -50.095700 24.543300 -24.619500 24.328600 0.000019 0.000005 3.162880 3.330670 -43.565000 22.291600 -0.000001 0.000005 10.296500 5.675440 -18.347600 12.994500 -0.242716 -4.980390 89.401400 1.906990 -72.569200 -5.348130 -0.000001 -0.000004 -44.406900 49.556500 -20.862300 -24.328900 0.000322 -0.000009 4.232630 3.043670 -54.322600 -22.291500 -0.000108 -0.000004 16.074800 5.678520 -19.064700 -2.192480 -6.469440 -0.000000 -170.078000 -17.733400 -4.293960 39.081100 -0.000007 -0.000012 -0.160865 0.315311 27.029900 40.985400 -0.000006 -0.000013 -4.970270 -2.011090 -65.588400 11.754300 -0.000000 0.000003 -0.000071 -0.000769 -16.607200 -2.192510 6.469440 -0.000001 175.577000 22.034300 176.544000 -39.081100 -0.002282 -0.040193 0.046537 -0.092447 25.059100 -40.985400 0.000008 0.000006 0.766740 3.657870 -64.053500 -11.754300 -0.000006 -0.000006 -0.005539 -0.066588 -19.282800
0.000000 0.000000 0.000000 0.000000 0.000000 -0.000000 -0.277145 91.677800 -2.441340 87.369000 -3.079300 5.447580 15.735700 0.000005 -0.000001 84.933300 82.537700 -83.980300 8.984550 -0.406207 -0.000000 7.113420 -1.318850 1.986050 16.377300 -0.000001 -0.000001 3.944610 -0.151357 1.023310 6.456720 -0.000001 -0.000000 -2.436150 0.999962 -2.377090 12.994200 -0.242716 4.980390 -89.641200 -1.115710 -72.169800 5.348090 -0.000007 -0.000001 -47.064300 19.280200 -26.813300 24.328600 0.000019 0.000005 3.130050 2.911450 -47.121800 22.291600 -0.000001 0.000005 11.641000 5.676990 -18.689100 12.994500 -0.242716 -4.980390 89.656400 1.066540 -72.137600 -5.348130 -0.000001 -0.000004 -41.000200 53.445900 -19.890500 -24.328900 0.000322 -0.000009 7.040310 3.829260 -61.587700 -22.291500 -0.000108 -0.000004 15.937700 5.680690 -19.965100 -2.192480 -6.469440 -0.000000 -170.034000 -17.657400 -4.264440 39.081100 -0.000007 -0.000012 -0.163063 0.318520 27.109900 40.985400 -0.000006 -0.000013 -4.942010 -1.716910 -65.630100 11.754300 -0.000000 0.000003 -0.000080 -0.000853 -16.610400 -2.192510 6.469440 -0.000001 175.487000 22.252400 176.714000 -39.081100 -0.002282 -0.040193 0.047196 -0.093479 25.148100 -40.985400 0.000008 0.000006 0.785578 3.568660 -64.240100 -11.754300 -0.000006 -0.000006 -0.005526 -0.066463 -19.277700
0.000000 0.000000 0.000000 0.000000 0.000000 -0.000000 -0.332662 91.669100 -2.327020 87.346300 -2.657000 5.520760 15.735700 0.000005 -0.000001 84.028400 82.710500 -82.941400 8.984550 -0.406207 -0.000000 6.751130 -1.521460 2.261450 16.377300 -0.000001 -0.000001 3.981260 -0.220716 0.870822 6.456720 -0.000001 -0.000000 -2.654920 1.121380 -2.322960 12.994200 -0.242716 4.980390 -89.417700 -1.807090 -72.136500 5.348090 -0.000007 -0.000001 -43.918700 13.556900 -29.307200 24.328600 0.000019 0.000005 1.961350 1.597900 -50.866500 22.291600 -0.000001 0.000005 12.683000 5.677760 -18.896200 12.994500 -0.242716 -4.980390 89.975000 0.076009 -71.727500 -5.348130 -0.000001 -0.000004 -38.644500 57.082300 -17.927700 -24.328900 0.000322 -0.000009 10.086300 3.959030 -68.771900 -22.291500 -0.000108 -0.000004 15.711400 5.682090 -20.904500 -2.192480 -6.469440 -0.000000 -169.942000 -17.508800 -4.199910 39.081100 -0.000007 -0.000012 -0.164286 0.320722 27.123500 40.985400 -0.000006 -0.000013 -4.923640 -1.396240 -65.649800 11.754300 -0.000000 0.000003 -0.000073 -0.000782 -16.607800 -2.192510 6.469440 -0.000001 175.459000 22.474400 176.904000 -39.081100 -0.002282 -0.040193 0.046831 -0.092469 25.203200 -40.985400 0.000008 0.000006 0.792947 3.317480 -64.340100 -11.754300 -0.000006 -0.000006 -0.005166 -0.063060 -19.139000
0.000000 0.000000 0.000000 0.000000 0.000000 -0.000000 -0.375957 91.648300 -2.209850 87.363100 -2.280900 5.504120 15.735700 0.000005 -0.000001 83.146100 82.920000 -81.939600 8.984550 -0.406207 -0.000000 6.313960 -1.700200 2.504300 16.377300 -0.000001 -0.000001 3.923010 -0.273540 0.793959 6.456720 -0.000001 -0.000000 -2.850040 1.316170 -2.403550 12.994200 -0.242716 4.980390 -89.173700 -2.536190 -71.948400 5.348090 -0.000007 -0.000001 -40.817700 7.300910 -32.095600 24.328600 0.000019 0.000005 0.536365 0.380120 -54.726500 22.291600 -0.000001 0.000005 13.350000 5.677650 -18.872200 12.994500 -0.242716 -4.980390 90.312800 -0.926065 -71.335500 -5.348130 -0.000001 -0.000004 -37.049200 60.770100 -15.476600 -24.328900 0.000322 -0.000009 14.971600 3.981920 -75.428900 -22.291500 -0.000108 -0.000004 17.511300 5.681560 -21.956600 -2.192480 -6.469440 -0.000000 -169.909000 -17.496400 -4.235320 39.081100 -0.000007 -0.000012 -0.164739 0.320690 27.189900 40.985400 -0.000006 -0.000013 -4.887240 -1.031900 -65.701600 11.754300 -0.000000 0.000003 -0.000084 -0.000888 -16.611800 -2.192510 6.469440 -0.000001 175.415000 22.621600 176.997000 -39.081100 -0.002282 -0.040193 0.047990 -0.094590 25.283400 -40.985400 0.000008 0.000006 0.737249 3.127720 -64.519600 -11.754300 -0.000006 -0.000006 -0.005338 -0.064696 -19.205700
